<svg xmlns="http://www.w3.org/2000/svg" viewBox="0 0 672.99 578.24"><defs><style>.a{fill:#263479;}.a,.ae,.ag,.e,.g,.h,.j,.k,.q,.r,.s,.t,.v,.w,.y{fill-rule:evenodd;}.b{fill:#f6c24d;}.c{fill:#46dea9;}.aa,.ab,.ac,.ad,.af,.d,.f,.n,.o,.p,.u,.x{fill:none;}.d{stroke:#979797;}.e{fill:#b2e1f6;}.e,.n,.p{stroke:#263479;}.f{stroke:#7ab8f3;stroke-width:6px;}.g,.m{fill:#fff;}.h{fill:#ff9e9d;}.i,.j,.q{fill:#51689b;}.k{fill:#7ab8f3;}.l{fill:#365fe8;}.o{stroke:#ed6266;}.af,.o,.p{stroke-width:2px;}.q{fill-opacity:0.25;}.r{fill:#c7d1e6;}.s{fill:#ee0d2b;}.t{fill:#ededed;}.v{fill:#f7ab88;}.w{fill:#d3d3d3;}.x{stroke:#8d624d;}.z{fill:#0d1934;}.aa,.ab,.ae{stroke:#000;}.aa,.ab{stroke-width:0.7px;}.ab,.af{stroke-linecap:square;}.ac{stroke:#553b2e;}.ad{stroke:#1b1361;}.ae{fill:#121212;}.af{stroke:#00041d;}.ag{fill:#00041d;}</style></defs><title>illustration1</title><path class="a" d="M250.51,400.75h49.17q2,28.9-13.45,30.29c-15.45,1.38-19.29,1.42-26.69-1.91Q247.93,423.93,250.51,400.75Z"/><rect class="b" x="250.19" y="394" width="50" height="7"/><ellipse class="c" cx="262.98" cy="381.88" rx="7.79" ry="5.71"/><ellipse class="c" cx="262.98" cy="366.49" rx="7.79" ry="5.71"/><ellipse class="c" cx="262.98" cy="349.92" rx="7.79" ry="5.71"/><ellipse class="c" cx="273.67" cy="338.65" rx="4.3" ry="8.65"/><ellipse class="c" cx="284.25" cy="351.1" rx="7.79" ry="5.71"/><ellipse class="c" cx="285.43" cy="365.31" rx="7.79" ry="5.71"/><ellipse class="c" cx="285.43" cy="381.88" rx="7.79" ry="5.71"/><path class="d" d="M274.36,393.85V347"/><path class="d" d="M273.9,389.89,270.19,386"/><path class="d" d="M274.8,390.21l3.87-3.71"/><path class="d" d="M273.9,374.29l-3.71-3.87"/><path class="d" d="M274.8,374.61l3.87-3.71"/><path class="d" d="M273.9,356.29l-3.71-3.87"/><path class="d" d="M274.8,356.61l3.87-3.71"/><path class="a" d="M599.19,431V406.41q-1-5.12-5.16-5.34t-13.9.22c-3.2,1.07-4.83,2.61-4.91,4.62s0,10.37.22,25.09Z"/><polygon class="a" points="595.46 389.2 591.96 389.22 591.96 386.58 595.45 386.58 595.46 389.2"/><polygon class="e" points="590.7 400.79 593.35 400.79 595.21 390.58 591.99 389.98 590.7 400.79"/><polygon class="a" points="581.01 390.64 577.98 392.4 576.67 390.13 579.69 388.38 581.01 390.64"/><polygon class="e" points="582.68 403.06 584.98 401.74 581.48 391.97 578.39 393.05 582.68 403.06"/><ellipse class="f" cx="454.69" cy="409.5" rx="7.5" ry="9.5"/><path class="g" d="M402.65,391H451q2,37.28-13.13,39c-15.19,1.75-19,1.33-26.31-2.9Q400.13,420.49,402.65,391Z"/><path class="h" d="M423.19,402h6a5,5,0,0,1,5,5v3a5,5,0,0,1-5,5h-6a5,5,0,0,1-5-5v-3A5,5,0,0,1,423.19,402Z"/><rect class="i" x="422.19" y="405" width="10" height="2"/><polygon class="j" points="422.19 409 427.19 409 427.19 411 422.19 411 422.19 409"/><polygon class="k" points="198.86 577.72 206.55 577.48 260 443.54 243.46 443.54 198.86 577.72"/><polygon class="k" points="651.33 577.55 643.63 577.31 590.19 443.38 606.73 443.38 651.33 577.55"/><path class="k" d="M177.87,430.65H672.8q1.74,13.56-12.37,13.78t-470.56-.22a15.58,15.58,0,0,1-8.81-4.94A12.19,12.19,0,0,1,177.87,430.65Z"/><circle class="l" cx="568.69" cy="76.5" r="45.5"/><circle class="m" cx="568.69" cy="77.5" r="34.5"/><circle class="n" cx="569.19" cy="51" r="2"/><circle class="n" cx="580.19" cy="55" r="2"/><circle class="n" cx="590.19" cy="65" r="2"/><circle class="n" cx="592.19" cy="77" r="2"/><circle class="n" cx="590.19" cy="90" r="2"/><circle class="n" cx="580.19" cy="98" r="2"/><circle class="n" cx="569.19" cy="102" r="2"/><circle class="n" cx="557.19" cy="98" r="2"/><circle class="n" cx="547.19" cy="88" r="2"/><circle class="n" cx="543.19" cy="77" r="2"/><circle class="n" cx="547.19" cy="65" r="2"/><circle class="n" cx="555.19" cy="55" r="2"/><path class="o" d="M569.19,81.18V61"/><path class="p" d="M568.72,80.84l-6.4-11.07"/><polygon class="q" points="192.19 0 327.19 0 327.19 71 192.19 71 192.19 0"/><polygon class="r" points="197.62 51 177.19 77 208.19 70.13 197.62 51"/><path class="s" d="M277.92,20.53a11,11,0,0,1-4,15l-29.45,17a11,11,0,0,1-15-4h0a11,11,0,0,1,4-15l29.45-17a11,11,0,0,1,15,4Z"/><path class="t" d="M279.65,19.53a11,11,0,0,1-4,15L260.9,43.05l-11-19,14.72-8.5a11,11,0,0,1,15,4Z"/><path class="u" d="M270.84,37.31a11,11,0,0,0-11-19l3.06-1.77a11,11,0,0,1,11,19.06Z"/><path class="u" d="M234.77,32.74a11,11,0,0,0,11,19l-3.06,1.77a11,11,0,0,1-11-19.06Z"/><path class="k" d="M71.26,233.31q20.4,5,17.2,39.62c-3.21,34.58,10,124.52,2.27,129.84s-46.93,7-61.89,3.16A84.16,84.16,0,0,1,2.2,394.24Q.91,285.13,3.72,272.93c2.81-12.2,7.32-42.43,46.82-40.88Q61.55,241.07,71.26,233.31Z"/><path class="a" d="M1.31,309.08q17.15,22.62,57,4.08t32-16.35q.36-12.45-20.4-6.63c-20.76,5.81-39,13.89-47,7.68s22.5-60.29,22.5-64.33q0-4-14,0Q11.17,238.3,4.39,266.34T1.31,309.08Z"/><path class="v" d="M90.75,297.46q2.37-2.23,9.52,2.25c7.14,4.49,12.4-9.82,10.44-11.64s-11-10.32-16.17-7.05-4.61,2.91-7.49,7.05Q84.19,292.22,90.75,297.46Z"/><polygon class="v" points="100.54 172.19 108.87 178.41 114.22 186.71 106.8 189.78 100.54 172.19"/><path class="a" d="M83.39,241.31q30.26,12.74,41.46,10.26t-21.72-60.91l17-6.66q33.49,61.23,31.58,70.29c-1.91,9-12,24.19-31.58,20.93a254.94,254.94,0,0,0-32-3.68Z"/><path class="w" d="M46.41,225.65Q35.58,230.11,27,228.82a17.31,17.31,0,0,0,0-10.38L24,227q-5.58-3.25-5.65-9.21c-.06-6-1.17-19.22-7.87-28.34s27.85-53.51,61.21-52.82q33.38.69,28.7,29.15,2.94,25.38,25.75,45.26c10.39,16-13.24,28.46-16.58,28.16q-3.34-.3-5.75-9.29.92,10.1-.77,9.29c-1.68-.8-34.86-6.38-35-9.29Q67.88,227,46.41,225.65Z"/><path class="v" d="M63.22,174.08,59.31,166l-2.08,8.08H47.32v15.48q-6.16-6.31-7.63-1.79c-1.47,4.52.38,12.84,4.56,14.53q4.17,1.69,7.3,8l-2.11,18.84q3.93,11,11.09,10.81t10.3-7v-9c2.13.4,5.3.09,9.53-.94,6.33-1.54,16.48-31,13.59-49H63.22Z"/><path class="x" d="M73.05,198.3q3.83,5.3,0,5.42"/><path class="y" d="M66.71,215.09q3.23-3.27,8.35-2.18t0,2.18H67.73"/><ellipse class="z" cx="62.04" cy="190.5" rx="1.85" ry="1.5"/><ellipse class="z" cx="82.34" cy="190.5" rx="1.85" ry="1.5"/><path class="aa" d="M78.69,186.35a4.15,4.15,0,1,0,0,8.3h6a4.15,4.15,0,0,0,0-8.3Z"/><path class="ab" d="M89.19,189l6-.9m-38.71.45-8.58-1m21.29,3.76s2-.26,3-.26,3,.26,3,.26"/><path class="aa" d="M59.69,186.35a4.15,4.15,0,1,0,0,8.3h6a4.15,4.15,0,0,0,0-8.3Z"/><path class="ac" d="M80.19,177l7,6"/><path class="ac" d="M56,182.91l6.18-6.86"/><path class="ad" d="M2.64,576.73H9.7c.46-1.44,2.43-1.44,5.89,0,5.2,2.17,19.83.17,17.46.17-4.1,0,5.53-2.63-.33-2.66-9.34,0-17.84-4.41-18.76-6.84-.62-1.61-3.81-2.61-9.59-3l-1.31,10Z"/><path class="ae" d="M2.64,576.73H9.7c.46-1.44,2.43-1.44,5.89,0,5.2,2.17,19.83.17,17.46.17-4.1,0,5.53-2.63-.33-2.66-9.34,0-17.84-4.41-18.76-6.84-.62-1.61-3.81-2.61-9.59-3l-1.31,10Z"/><polygon class="g" points="4.56 563.14 13.54 566.26 16.47 557.2 6.57 553.15 4.56 563.14"/><polygon class="g" points="63.84 553.13 72.83 549.29 73.98 555.96 65.15 557.08 63.84 553.13"/><path class="ae" d="M67.4,570.59,74,568.17q-.09-2.26,5.53-2c5.62.25,18.69-6.63,16.47-5.81-3.86,1.4,4.29-4.37-1.23-2.39-8.79,3.15-18.26,1.95-20,0q-1.69-2-10,.48L67,568.28Z"/><polygon class="v" points="4.19 563.72 13.05 566.11 16.22 556.86 6.08 553 4.19 563.72"/><polygon class="v" points="62.85 551.31 64.69 558.34 72.38 556.79 71.06 548.3 62.85 551.31"/><path class="af" d="M120.23,124.39,129,100.26"/><path class="af" d="M135.14,134.91l19.67-16.51"/><path class="af" d="M102.91,124.06,98.45,98.78"/><path class="ag" d="M10.75,399.71a106.52,106.52,0,0,0,22.54,5.6,123.28,123.28,0,0,0,19.22.81l19.73,144.1-8.92,3.4q-16.41-66.83-19.8-67.44T17.5,557L6.19,553.62Q28.86,458.1,27.53,448.09T13.64,404.14Z"/><polygon class="ag" points="51.19 405.96 73.01 405.96 58.02 448.27 51.19 405.96"/></svg>