<?xml version="1.0" encoding="UTF-8"?>
<svg width="35px" height="46px" viewBox="0 0 35 46" version="1.1" xmlns="http://www.w3.org/2000/svg" xmlns:xlink="http://www.w3.org/1999/xlink">
    <!-- Generator: Sketch 46.2 (44496) - http://www.bohemiancoding.com/sketch -->
    <title>9F</title>
    <desc>Created with Sketch.</desc>
    <defs></defs>
    <g id="Page-1" stroke="none" stroke-width="1" fill="none" fill-rule="evenodd">
        <g id="FREE100icons" transform="translate(-1167.000000, -900.000000)" fill="#394450">
            <g id="F" transform="translate(17.000000, 900.000000)">
                <path d="M1166.98,25.68 L1173.19,25.68 C1174.02,25.68 1174.69,25.01 1174.69,24.18 C1174.69,23.35 1174.02,22.68 1173.19,22.68 L1168.48,22.68 L1168.48,14.83 C1168.48,14 1167.81,13.33 1166.98,13.33 C1166.15,13.33 1165.48,14 1165.48,14.83 L1165.48,24.18 C1165.48,25.01 1166.15,25.68 1166.98,25.68 M1174.6,42.77 C1174.6,43.04 1174.38,43.27 1174.1,43.27 L1159.85,43.27 C1159.58,43.27 1159.35,43.04 1159.35,42.77 L1159.35,38.8 C1161.71,40.05 1164.39,40.77 1167.23,40.77 C1169.88,40.77 1172.37,40.14 1174.6,39.04 L1174.6,42.77 Z M1153.35,23.89 C1153.35,16.24 1159.58,10.02 1167.23,10.02 C1174.88,10.02 1181.1,16.24 1181.1,23.89 C1181.1,31.54 1174.88,37.77 1167.23,37.77 C1159.58,37.77 1153.35,31.54 1153.35,23.89 Z M1159.35,4.77 C1159.35,4.49 1159.58,4.27 1159.85,4.27 L1174.1,4.27 C1174.38,4.27 1174.6,4.49 1174.6,4.77 L1174.6,8.74 C1172.37,7.65 1169.88,7.02 1167.23,7.02 C1164.39,7.02 1161.71,7.73 1159.35,8.98 L1159.35,4.77 Z M1184.1,23.89 C1184.1,18.49 1181.54,13.68 1177.58,10.59 C1177.59,10.51 1177.6,10.43 1177.6,10.34 L1177.6,4.77 C1177.6,2.84 1176.03,1.27 1174.1,1.27 L1159.85,1.27 C1157.92,1.27 1156.35,2.84 1156.35,4.77 L1156.35,10.71 C1156.35,10.8 1156.37,10.89 1156.38,10.98 C1152.7,14.08 1150.35,18.71 1150.35,23.89 C1150.35,29.05 1152.69,33.68 1156.35,36.77 L1156.35,42.77 C1156.35,44.7 1157.92,46.27 1159.85,46.27 L1174.1,46.27 C1176.03,46.27 1177.6,44.7 1177.6,42.77 L1177.6,37.17 C1181.55,34.08 1184.1,29.28 1184.1,23.89 L1184.1,23.89 Z" id="9F"></path>
            </g>
        </g>
    </g>
</svg>
