<svg xmlns="http://www.w3.org/2000/svg" width="162" height="122" viewBox="0 0 162 122">
  <g fill="none" fill-rule="evenodd" opacity=".147">
    <path fill="#F0F5FF" d="M162,1 L162,26.7778612 C148.577469,46.2350134 126.039518,59 100.5,59 C64.8856215,59 35.108024,34.1774898 27.7460052,1 L162,1 Z"/>
    <path fill="#84D1FB" d="M162,101.471936 C148.621472,114.188224 130.479169,122 110.5,122 C69.3547861,122 36,88.8690715 36,48 C36,29.6838535 42.6994143,12.9219375 53.7970506,-9.76996262e-15 L162,0 L162,101.471936 Z"/>
    <path fill="#84D1FB" d="M0.817467059,0 L148.182533,0 C148.720992,3.588987 149,7.26212923 149,11 C149,51.8690715 115.645214,85 74.5,85 C33.3547861,85 0,51.8690715 0,11 C0,7.26212923 0.279008338,3.588987 0.817467059,8.8817842e-16 Z"/>
  </g>
</svg>
